<mxfile host="app.diagrams.net" modified="2021-05-27T04:14:45.737Z" agent="5.0 (Windows NT 10.0; Win64; x64) AppleWebKit/537.36 (KHTML, like Gecko) Chrome/85.0.4183.83 Safari/537.36" etag="fZZY6Y8WZeuGcvoZw8Ki" version="14.7.2" type="github">
  <diagram id="DjmKvpMPj76WyyVE7rOA" name="第 1 页">
    <mxGraphModel dx="1408" dy="699" grid="1" gridSize="10" guides="1" tooltips="1" connect="1" arrows="1" fold="1" page="1" pageScale="1" pageWidth="1654" pageHeight="1169" math="0" shadow="0">
      <root>
        <mxCell id="0" />
        <mxCell id="1" parent="0" />
        <mxCell id="9GUXN84mYo8q_pWZlE_W-1" value=":Object" style="shape=umlLifeline;perimeter=lifelinePerimeter;whiteSpace=wrap;html=1;container=1;collapsible=0;recursiveResize=0;outlineConnect=0;" vertex="1" parent="1">
          <mxGeometry x="110" y="50" width="100" height="460" as="geometry" />
        </mxCell>
        <mxCell id="9GUXN84mYo8q_pWZlE_W-2" value=":Object" style="shape=umlLifeline;perimeter=lifelinePerimeter;whiteSpace=wrap;html=1;container=1;collapsible=0;recursiveResize=0;outlineConnect=0;" vertex="1" parent="1">
          <mxGeometry x="290" y="50" width="100" height="460" as="geometry" />
        </mxCell>
        <mxCell id="9GUXN84mYo8q_pWZlE_W-8" value="" style="html=1;points=[];perimeter=orthogonalPerimeter;" vertex="1" parent="9GUXN84mYo8q_pWZlE_W-2">
          <mxGeometry x="45" y="60" width="10" height="80" as="geometry" />
        </mxCell>
        <mxCell id="9GUXN84mYo8q_pWZlE_W-9" value="dispatch" style="html=1;verticalAlign=bottom;startArrow=oval;endArrow=block;startSize=8;" edge="1" target="9GUXN84mYo8q_pWZlE_W-8" parent="1" source="9GUXN84mYo8q_pWZlE_W-1">
          <mxGeometry relative="1" as="geometry">
            <mxPoint x="275" y="130" as="sourcePoint" />
            <Array as="points">
              <mxPoint x="260" y="120" />
            </Array>
          </mxGeometry>
        </mxCell>
      </root>
    </mxGraphModel>
  </diagram>
</mxfile>
